HIERARCHY
ROOT root
{
	OFFSET 0.000000 0.000000 0.000000
	CHANNELS 6 Xposition Yposition Zposition Zrotation Yrotation Xrotation
	JOINT lhip
	{
		OFFSET 0.058581 -0.082280 -0.017664
		CHANNELS 3 Zrotation Yrotation Xrotation
		JOINT lknee
		{
			OFFSET 0.043451 -0.386469 0.008037
			CHANNELS 3 Zrotation Yrotation Xrotation
			JOINT lankle
			{
				OFFSET -0.014790 -0.426874 -0.037428
				CHANNELS 3 Zrotation Yrotation Xrotation
				JOINT ltoe
				{
					OFFSET 0.041054 -0.060286 0.122042
					CHANNELS 3 Zrotation Yrotation Xrotation
					End Site
					{
						OFFSET 0.000000 0.000000 0.000000
					}
				}
			}
		}
	}
	JOINT rhip
	{
		OFFSET -0.060310 -0.090513 -0.013543
		CHANNELS 3 Zrotation Yrotation Xrotation
		JOINT rknee
		{
			OFFSET -0.043257 -0.383688 -0.004843
			CHANNELS 3 Zrotation Yrotation Xrotation
			JOINT rankle
			{
				OFFSET 0.019056 -0.420046 -0.034562
				CHANNELS 3 Zrotation Yrotation Xrotation
				JOINT rtoe
				{
					OFFSET -0.034840 -0.062106 0.130323
					CHANNELS 3 Zrotation Yrotation Xrotation
					End Site
					{
						OFFSET 0.000000 0.000000 0.000000
					}
				}
			}
		}
	}
	JOINT lowerback
	{
		OFFSET 0.004439 0.124404 -0.038385
		CHANNELS 3 Zrotation Yrotation Xrotation
		JOINT upperback
		{
			OFFSET 0.004488 0.137956 0.026820
			CHANNELS 3 Zrotation Yrotation Xrotation
			JOINT chest
			{
				OFFSET -0.002265 0.056032 0.002855
				CHANNELS 3 Zrotation Yrotation Xrotation
				JOINT lowerneck
				{
					OFFSET -0.013390 0.211636 -0.033468
					CHANNELS 3 Zrotation Yrotation Xrotation
					JOINT upperneck
					{
						OFFSET 0.010113 0.088937 0.050410
						CHANNELS 3 Zrotation Yrotation Xrotation
						End Site
						{
							OFFSET 0.000000 0.000000 0.000000
						}
					}
				}
				JOINT lclavicle
				{
					OFFSET 0.071702 0.114000 -0.018898
					CHANNELS 3 Zrotation Yrotation Xrotation
					JOINT lshoulder
					{
						OFFSET 0.122921 0.045205 -0.019046
						CHANNELS 3 Zrotation Yrotation Xrotation
						JOINT lelbow
						{
							OFFSET 0.255332 -0.015649 -0.022946
							CHANNELS 3 Zrotation Yrotation Xrotation
							JOINT lwrist
							{
								OFFSET 0.265709 0.012698 -0.007375
								CHANNELS 3 Zrotation Yrotation Xrotation
								End Site
								{
									OFFSET 0.000000 0.000000 0.000000
								}
							}
						}
					}
				}
				JOINT rclavicle
				{
					OFFSET -0.082954 0.112472 -0.023707
					CHANNELS 3 Zrotation Yrotation Xrotation
					JOINT rshoulder
					{
						OFFSET -0.113228 0.046853 -0.008472
						CHANNELS 3 Zrotation Yrotation Xrotation
						JOINT relbow
						{
							OFFSET -0.260127 -0.014369 -0.031269
							CHANNELS 3 Zrotation Yrotation Xrotation
							JOINT rwrist
							{
								OFFSET -0.269108 0.006794 -0.006027
								CHANNELS 3 Zrotation Yrotation Xrotation
								End Site
								{
									OFFSET 0.000000 0.000000 0.000000
								}
							}
						}
					}
				}
			}
		}
	}
}
MOTION
Frames: 12
Frame Time: 0.033333
0.343628 0.797984 0.992488 82.979460 2.864409 85.257481 4.926281 1.502586 8.813828 -3.183327 -15.382895 1.597292 4.532992 9.345314 -19.243909 0.000000 -0.000000 0.000000 -0.053592 -2.632433 4.388336 4.790980 6.443772 4.999661 3.297524 -1.896283 -9.218731 0.000000 -0.000000 0.000000 -2.296991 0.821178 2.993155 0.886112 -2.693818 2.231545 0.493725 -2.097488 4.406209 5.161794 -7.735436 -5.361527 3.430841 -12.070750 0.308979 -27.323488 5.883734 2.200259 -58.769127 -4.670221 6.235116 13.863440 -19.431776 0.238914 4.486940 -4.090088 -8.315405 24.971438 -1.543998 -0.740010 59.765669 1.490967 11.886900 -12.555260 21.521204 0.349442 2.568426 0.471519 -5.421069 
0.344037 0.798139 0.992447 83.406711 2.778987 85.192220 4.795398 1.367011 8.792351 -3.130978 -15.391135 1.708340 4.588100 9.151312 -19.307083 0.000000 -0.000000 0.000000 -0.213225 -2.697351 4.694424 4.842989 6.342655 4.723493 3.683963 -2.076548 -9.250567 0.000000 -0.000000 0.000000 -2.280900 0.821655 3.092578 0.930368 -2.709551 2.300180 0.375464 -2.216215 4.370850 5.217780 -7.811316 -5.630224 3.271759 -12.273486 0.846562 -27.255874 6.103347 2.182588 -58.453548 -4.928455 6.143113 14.119658 -20.026452 -0.561545 4.754112 -4.297204 -8.805931 24.979134 -1.730549 -0.918078 59.554011 1.628514 11.864827 -12.315780 21.105739 0.181094 2.631901 0.631424 -5.207257 
0.343746 0.797741 0.992396 83.688481 2.741486 85.071806 4.832243 1.331939 8.815970 -3.180316 -15.544831 1.809888 4.518441 8.997694 -19.309716 0.000000 -0.000000 0.000000 -0.242373 -2.911821 4.768296 4.985588 5.713956 4.679946 3.761282 -2.285424 -9.463183 0.000000 -0.000000 0.000000 -2.309282 0.888404 3.416876 0.915452 -2.704584 2.380251 0.409956 -2.243120 4.319264 5.331747 -7.665338 -5.548763 3.545632 -12.043093 0.649695 -27.241517 6.084824 2.202528 -58.128734 -5.221889 5.940800 14.592178 -20.633591 -1.330469 5.034018 -4.280780 -8.914165 25.100802 -1.579199 -1.027442 59.457086 1.638624 11.671103 -12.582602 20.907438 -0.262985 2.682256 0.541622 -5.079612 
0.343841 0.797283 0.992417 83.881850 2.703429 85.160810 4.845724 1.189202 8.625205 -3.254822 -15.620631 1.909389 4.460827 8.957165 -19.378208 0.000000 -0.000000 0.000000 -0.265546 -2.961488 4.679309 4.952364 5.803635 4.815437 3.799660 -2.204000 -9.397231 0.000000 -0.000000 0.000000 -2.377175 0.896395 3.458233 0.967168 -2.705654 2.214586 0.445084 -2.264768 4.410585 5.491822 -7.531286 -5.436195 3.534732 -12.073746 1.029553 -27.229262 6.365721 1.971794 -57.926906 -5.436603 5.902432 14.929477 -21.333428 -2.021290 5.586968 -4.616714 -9.378695 25.177254 -1.712273 -1.090855 59.189248 2.004189 11.770960 -12.315827 20.647226 -0.343208 2.572251 0.573151 -5.145018 
0.343690 0.797242 0.992467 83.963726 2.670959 85.225093 4.813118 1.136073 8.501477 -3.257135 -15.636646 1.924389 4.411454 8.970875 -19.336341 0.000000 -0.000000 0.000000 -0.295735 -2.981339 4.563386 4.977182 5.590044 4.812523 3.862797 -2.264185 -9.568041 0.000000 -0.000000 0.000000 -2.397709 0.914408 3.620709 0.975071 -2.680512 2.015227 0.465478 -2.256648 4.291262 5.499817 -7.643483 -5.473545 3.435201 -12.317836 1.448898 -27.134457 6.478292 1.920694 -57.928333 -5.513855 5.856773 14.938236 -21.739016 -2.567055 5.639159 -4.822250 -9.992658 25.212731 -1.728546 -1.059261 59.087701 1.955044 11.852334 -12.332929 20.798770 -0.380611 2.511185 0.658854 -5.107017 
0.343238 0.797063 0.992498 83.952550 2.630886 85.220182 4.789500 1.086229 8.391883 -3.314263 -15.601615 2.073687 4.370972 8.949978 -19.430961 0.000000 -0.000000 0.000000 -0.284120 -2.810006 4.525839 4.860481 5.962880 5.035654 3.834996 -2.204431 -9.382927 0.000000 -0.000000 0.000000 -2.425516 0.909625 3.710936 1.021605 -2.552387 2.043398 0.430184 -2.245142 4.383872 5.546908 -7.550275 -5.647842 3.356438 -12.449689 1.718219 -27.224350 6.424350 1.789795 -57.744823 -5.787895 5.921232 15.421966 -22.311446 -3.070787 6.466415 -5.116815 -9.987814 25.340542 -1.412005 -0.964428 58.983593 2.259244 12.054712 -12.352467 20.739815 -0.681148 2.223890 0.760882 -5.188154 
0.342986 0.797131 0.992273 84.030744 2.635779 85.402912 4.769286 0.840299 8.168193 -3.322193 -15.549817 2.075422 4.504974 9.018799 -19.358828 0.000000 -0.000000 0.000000 -0.230712 -2.513244 4.452393 4.704607 6.501480 5.099167 3.735747 -2.221606 -9.215144 0.000000 -0.000000 0.000000 -2.396076 0.864379 3.544953 1.063264 -2.512718 2.100161 0.421938 -2.164389 4.427855 5.625537 -7.291312 -5.309258 3.434725 -12.121616 1.521081 -27.161186 6.374707 1.786590 -57.889324 -5.923176 6.019080 15.435330 -22.919019 -3.237487 5.943629 -4.997149 -10.681277 25.349172 -1.341797 -0.886861 59.063941 2.379230 12.189871 -12.642440 21.132432 -1.009717 2.333973 0.672241 -5.571467 
0.342883 0.797389 0.992179 84.143822 2.627691 85.356472 4.795494 0.838157 8.190213 -3.386301 -15.641318 2.106071 4.576579 8.947913 -19.404944 0.000000 -0.000000 0.000000 -0.274791 -2.562281 4.509778 4.775321 6.390719 5.110607 3.754687 -2.332905 -9.244751 0.000000 -0.000000 0.000000 -2.385914 0.868430 3.561271 1.043618 -2.497471 2.280103 0.460380 -2.137710 4.404334 5.672065 -7.127735 -5.461285 3.436422 -11.902490 1.501397 -27.088225 6.126544 1.955244 -58.082530 -6.116745 6.044641 15.285588 -23.439759 -3.376320 5.551588 -5.041662 -11.208338 25.412536 -1.234272 -0.870153 59.108669 2.730445 12.052190 -12.715221 21.220973 -1.179592 2.668972 0.671982 -5.636463 
0.342840 0.797837 0.992200 84.260909 2.598119 85.259928 4.699090 0.810867 8.274263 -3.308355 -15.647735 2.086366 4.453488 8.817056 -19.391721 0.000000 -0.000000 0.000000 -0.433276 -2.911939 4.454900 5.058963 5.437075 4.897329 3.697561 -2.396030 -9.728108 0.000000 -0.000000 0.000000 -2.309191 0.941464 3.703292 0.996945 -2.493832 2.391380 0.470554 -2.216678 4.414097 5.672724 -6.874521 -5.685576 3.311231 -11.665899 1.877750 -27.193567 6.012008 1.846047 -58.258045 -6.286127 6.179485 15.383862 -23.673076 -3.564671 5.719360 -5.159625 -11.298143 25.488219 -1.070832 -0.941080 59.032890 2.990207 12.062922 -12.554626 21.414681 -1.320359 2.554099 0.703790 -5.679193 
0.342954 0.798284 0.992281 84.352147 2.611723 85.284785 4.713617 0.863448 8.252519 -3.316682 -15.784034 2.106318 4.494966 8.750186 -19.484161 0.000000 -0.000000 0.000000 -0.381801 -2.776628 4.438960 4.837182 6.112267 5.473529 3.842244 -2.304843 -9.177212 0.000000 -0.000000 0.000000 -2.213661 0.932344 3.682031 0.997771 -2.434953 2.438616 0.439958 -2.178416 4.438808 5.690488 -6.308391 -5.989103 3.219285 -11.109350 1.924013 -27.319408 5.847326 1.850060 -58.351538 -6.374269 6.269255 15.206937 -24.069465 -3.163747 5.965596 -5.203366 -11.100318 25.611717 -1.068448 -0.847444 59.019373 3.131499 12.139625 -12.574837 22.009668 -1.387657 2.514807 0.840989 -5.756001 
0.343146 0.798751 0.991962 84.425569 2.542083 85.413602 4.576050 0.740075 8.200660 -3.265429 -15.716904 1.914443 4.569515 8.809036 -19.429648 0.000000 -0.000000 0.000000 -0.451175 -2.636619 4.411548 4.703377 6.344790 5.290203 3.882370 -2.300658 -9.362330 0.000000 -0.000000 0.000000 -2.250043 1.040980 3.450129 1.013363 -2.426939 2.613736 0.450935 -2.132550 4.508481 5.701974 -5.801474 -6.052973 3.115157 -10.672232 1.748335 -27.386350 5.770805 1.784523 -58.695446 -6.482916 6.467798 15.090363 -24.130472 -3.372338 5.971592 -5.321079 -11.422093 25.624797 -0.911994 -0.815376 59.112474 3.251893 12.410990 -12.722030 22.044329 -1.485124 2.439045 0.847752 -5.845189 
0.343061 0.799179 0.991932 84.529869 2.580876 85.464793 4.599403 0.783639 8.077085 -3.292848 -15.834751 2.002819 4.512893 8.677776 -19.338667 0.000000 -0.000000 0.000000 -0.498227 -2.973457 4.206381 4.855821 5.512591 5.226096 3.987734 -2.236445 -9.577497 0.000000 -0.000000 0.000000 -2.157130 1.053936 3.695972 0.926394 -2.322992 2.569109 0.600431 -1.897770 4.312731 5.613157 -5.583428 -6.266848 3.138271 -10.256320 1.525425 -27.444881 5.656337 1.579737 -59.015813 -6.382383 6.572239 15.107836 -24.282240 -2.893961 5.812036 -5.334262 -11.093910 25.425389 -1.040389 -1.018096 59.298102 3.046192 12.215834 -12.622368 22.168626 -1.100032 2.448230 1.011574 -5.574801 
